<?xml version="1.0" ?><svg fill="#343434" viewBox="0 0 30.00222 29.99805" xmlns="http://www.w3.org/2000/svg"><title/><g data-name="Layer 2" id="Layer_2"><g id="Interface-Solid"><g id="interface-solid-rating-star"><path d="M27.33168,11.86621l-7.25488-.30176a2.67224,2.67224,0,0,1-2.4043-1.80273l-2.51611-7.124v.001c-.06836-.19531-.24219-.19531-.31055,0L12.32973,9.76074A2.67146,2.67146,0,0,1,9.9269,11.56445l-7.25635.30176c-.02881.001-.10547.00391-.15137.14063a.26322.26322,0,0,0,.0708.2998l5.7002,4.7041a2.77369,2.77369,0,0,1,.89892,2.8584L7.22182,27.17969a.24827.24827,0,0,0,.08887.29.10275.10275,0,0,0,.147-.001l6.03857-4.21582a2.60419,2.60419,0,0,1,3.01026.001l6.03808,4.21484a.10308.10308,0,0,0,.147.001.24829.24829,0,0,0,.08886-.29l-1.96728-7.30957a2.77617,2.77617,0,0,1,.89941-2.86035l5.69922-4.70313a.26272.26272,0,0,0,.07129-.2998C27.43715,11.87012,27.36049,11.86719,27.33168,11.86621Z" fill="none"/><path d="M29.85268,11.21a2.66375,2.66375,0,0,0-2.41748-1.8418l-7.25342-.30175a.19.19,0,0,1-.15186-.1377L17.51381,1.80566v-.001a2.65135,2.65135,0,0,0-5.02539.001L9.97231,8.92773a.19.19,0,0,1-.15039.13868L2.567,9.36816A2.66375,2.66375,0,0,0,.14955,11.21a2.75261,2.75261,0,0,0,.84912,3.02442l5.7002,4.70507a.2763.2763,0,0,1,.07617.28028L4.80776,26.5293a2.73825,2.73825,0,0,0,1.0664,2.98632,2.60383,2.60383,0,0,0,3.01416.00391l6.03907-4.2168a.11955.11955,0,0,1,.14794.001l6.03858,4.21582a2.60384,2.60384,0,0,0,3.01416-.00391,2.73826,2.73826,0,0,0,1.06641-2.98632l-1.96729-7.3086a.27883.27883,0,0,1,.07666-.28222l5.69922-4.7041A2.752,2.752,0,0,0,29.85268,11.21Zm-2.44092,1.09668-5.69922,4.70313a2.77617,2.77617,0,0,0-.89941,2.86035l1.96728,7.30957a.24829.24829,0,0,1-.08886.29.10308.10308,0,0,1-.147-.001l-6.03808-4.21484a2.60419,2.60419,0,0,0-3.01026-.001L7.45766,27.46875a.10275.10275,0,0,1-.147.001.24827.24827,0,0,1-.08887-.29L9.1891,19.86914a2.77369,2.77369,0,0,0-.89892-2.8584L2.59,12.30664a.26322.26322,0,0,1-.0708-.2998c.0459-.13672.12256-.13965.15137-.14063l7.25635-.30176a2.67146,2.67146,0,0,0,2.40283-1.80371l2.51611-7.12207c.06836-.19531.24219-.19531.31055,0v-.001l2.51611,7.124a2.67224,2.67224,0,0,0,2.4043,1.80273l7.25488.30176c.02881.001.10547.00391.15137.14063A.26272.26272,0,0,1,27.41176,12.30664Z"/></g></g></g></svg>